<svg width="412" height="412" viewBox="0 0 412 412" fill="none" xmlns="http://www.w3.org/2000/svg">
<rect width="412" height="412" rx="50" fill="#5900F8"/>
<path fill-rule="evenodd" clip-rule="evenodd" d="M224.3 187C252.6 187 264.6 187.4 267.4 188.3C269.6 189 272.2 190.8 273.4 192.5C274.7 194.4 275.5 197 275.5 199.5C275.5 201.7 273.5 208.9 271.1 215.5C268.7 222.1 265.2 229.5 263.5 232C261.7 234.5 258.5 237.6 256.4 239C254.2 240.4 251.2 242.2 249.5 243C247.1 244.2 239.7 244.5 212.3 244.7C189.8 244.9 178.2 245.3 178.5 246C178.8 246.6 180.8 247.9 183 249C186.7 250.9 186.9 251.2 186.1 253.7C185.944 254.116 185.727 254.7 185.425 255.515C184.565 257.836 183.013 262.024 180.2 269.5L155 270L156.9 264.7C157.417 263.252 159.485 257.58 162.357 249.702C165.039 242.344 168.423 233.062 171.9 223.5C179.1 203.7 185 187.4 185 187.2C185 187.1 202.7 187 224.3 187ZM194.2 208.7C192.4 207.8 190.9 206.8 190.9 206.5C190.9 206.3 204 206 219.9 206C235.9 206 248.9 206.2 248.9 206.3C249 206.4 247.8 209.7 246.4 213.5C245 217.4 243.3 221.8 241.4 226.1H219.2C206.9 226.1 196.9 225.7 196.9 225.3C196.9 224.9 197.8 222 198.9 218.8C200.8 213.3 200.8 213 199.2 211.7C198.2 210.9 196 209.6 194.2 208.7Z" fill="#E9E9E9"/>
<path fill-rule="evenodd" clip-rule="evenodd" d="M339.3 188.022C364.4 187.922 370.7 188.122 373.8 189.322C375.9 190.222 378.3 192.122 379.3 193.822C380.2 195.522 381 198.622 381 200.822C381 203.022 379.2 209.822 377 215.822C374.8 221.922 371.2 231.922 369 238.122C366.8 244.322 363.9 251.622 362.6 254.322C361.3 257.122 358.3 261.022 355.9 263.122C353.5 265.222 349.9 267.722 348 268.622C344.9 270.122 340.3 270.422 310 270.622C276.9 270.922 275.4 270.822 272.3 268.922C270.5 267.822 268.6 265.722 268 264.322C267.5 263.022 267 260.322 267 258.322C267 256.422 268.8 250.022 270.9 244.122C271.834 241.618 273.093 238.157 274.454 234.415C276.298 229.343 278.331 223.753 280 219.322C282.8 211.622 286 204.022 287 202.322C288 200.722 290.4 197.922 292.4 196.122C294.4 194.322 297.5 192.122 299.3 191.222C301.1 190.322 303.9 189.222 305.5 188.822C307.2 188.422 322.4 188.022 339.3 188.022ZM302 210.622C299.8 209.422 298 208.022 298 207.622C298 207.222 310.8 206.822 326.5 206.822C344.8 206.822 355 207.222 355 207.822C355 208.422 353.9 211.722 352.6 215.122C351.3 218.522 347.8 227.922 344.9 235.822C342 243.822 339 250.922 338.1 251.622C336.9 252.622 330.9 252.922 315.3 252.922C294.7 252.922 294 252.822 294 250.822C294 249.722 296.7 241.522 300 232.622C303.3 223.722 306 215.622 306 214.622C306 213.622 304.3 211.922 302 210.622Z" fill="#E9E9E9"/>
<path d="M112.614 143.914C107.314 142.314 103.214 141.914 94.3141 142.014C88.0141 142.014 81.7141 142.414 80.3141 142.914C78.9141 143.314 76.7141 144.014 75.3141 144.314C73.9141 144.614 72.1141 145.314 71.3141 145.814C70.0141 146.614 70.4141 147.614 73.4141 152.114C75.5141 155.014 78.5141 160.514 80.3141 164.414C82.0141 168.314 83.8141 172.014 84.1141 172.714C84.6141 173.714 87.5141 174.114 94.7141 174.214C102.614 174.414 104.714 174.114 105.414 172.914C105.814 172.114 107.614 168.314 109.314 164.414C111.014 160.514 114.014 155.314 115.914 152.614C117.814 150.014 119.314 147.514 119.314 146.914C119.314 146.314 116.314 145.014 112.614 143.914Z" fill="#2B000A"/>
<path d="M135.814 155.814C133.114 153.714 130.514 151.914 130.114 151.914C129.814 151.914 127.914 154.014 126.014 156.614C124.014 159.314 121.314 163.914 119.814 166.914C118.314 169.914 117.014 173.414 116.914 174.714C116.814 176.614 117.614 177.314 121.314 178.614C123.814 179.514 127.214 181.014 128.814 181.914C130.414 182.914 133.214 184.514 135.014 185.514C136.714 186.614 138.314 187.214 138.514 186.914C138.714 186.614 140.014 183.914 141.514 180.914C143.014 177.914 145.114 174.014 146.214 172.414L148.314 169.414C142.514 161.914 138.614 158.014 135.814 155.814Z" fill="#2B000A"/>
<path d="M63.2141 156.614C61.6141 154.614 59.6141 152.914 58.7141 152.914C57.8141 152.914 53.5141 156.514 49.2141 160.914L41.3141 168.914C45.7141 175.514 48.0141 179.414 49.3141 181.914C50.5141 184.414 51.7141 186.614 51.9141 186.914C52.1141 187.214 54.0141 186.214 56.0141 184.814C58.1141 183.414 61.9141 181.314 64.6141 180.114C67.2141 178.914 70.0141 177.914 70.8141 177.914C71.6141 177.914 72.6141 177.314 72.9141 176.614C73.2141 176.014 71.8141 172.014 69.8141 167.914C67.8141 163.814 64.8141 158.714 63.2141 156.614Z" fill="#2B000A"/>
<path d="M37.4141 182.914L35.5141 180.414L33.2141 186.414C31.3141 191.614 30.9141 194.214 31.0141 205.914C31.0141 216.714 31.3141 220.514 32.9141 224.814C33.9141 227.814 35.3141 230.414 35.8141 230.614C36.3141 230.814 37.6141 229.214 38.7141 227.214C39.7141 225.114 41.2141 221.114 41.9141 218.414C42.7141 215.614 43.3141 210.014 43.3141 205.914C43.3141 201.114 42.6141 196.114 41.2141 191.914C40.1141 188.314 38.4141 184.314 37.4141 182.914Z" fill="#2B000A"/>
<path d="M157.314 188.914C156.114 185.314 154.814 182.014 154.414 181.614C154.114 181.114 152.414 183.414 150.814 186.614C149.014 190.214 147.514 195.314 146.914 199.914C146.214 205.314 146.314 209.214 147.114 213.914C147.814 217.514 149.414 222.814 150.814 225.614C152.214 228.514 153.614 230.914 154.114 230.914C154.514 230.914 155.914 227.414 157.214 223.214C159.014 217.214 159.514 213.114 159.414 205.414C159.414 198.014 158.814 193.714 157.314 188.914Z" fill="#2B000A"/>
<path d="M101.014 186.114C100.314 185.414 97.7141 184.814 94.8141 184.914C92.1141 184.914 89.2141 185.314 88.5141 185.714C87.5141 186.314 87.4141 187.714 88.4141 192.914C89.0141 196.514 89.3141 204.814 89.2141 211.414L88.8141 223.414H100.814C100.414 204.014 100.614 195.914 101.214 192.914C101.814 189.014 101.814 187.014 101.014 186.114Z" fill="#2B000A"/>
<path d="M77.6141 196.414C76.9141 189.514 76.5141 188.414 74.8141 188.214C73.7141 188.114 70.6141 189.014 67.8141 190.314C65.1141 191.514 61.1141 194.214 59.1141 196.214C57.0141 198.214 55.0141 201.114 54.7141 202.614C54.3141 204.314 54.7141 206.714 55.7141 208.614C56.6141 210.414 59.2141 213.214 61.6141 214.714C63.9141 216.314 67.7141 218.314 70.1141 219.214C72.4141 220.114 75.0141 220.914 75.8141 220.914C77.0141 220.914 77.4141 219.114 77.9141 212.614C78.2141 208.114 78.1141 200.814 77.6141 196.414Z" fill="#2B000A"/>
<path d="M121.814 190.814C118.514 189.314 115.314 187.914 114.614 187.914C113.914 187.914 113.014 188.514 112.614 189.114C112.214 189.814 111.714 196.314 111.514 203.414C111.314 211.214 111.614 217.514 112.214 219.114L113.314 221.914C120.714 219.314 124.814 217.114 127.314 215.414C129.714 213.814 132.614 210.814 133.614 208.914C134.814 206.714 135.314 204.514 134.914 203.114C134.614 201.914 132.814 199.314 131.114 197.314C129.314 195.314 125.114 192.414 121.814 190.814Z" fill="#2B000A"/>
<path d="M68.6141 230.714C65.9141 229.714 61.2141 227.414 57.9141 225.514C52.9141 222.414 52.0141 222.214 51.6141 223.714C51.3141 224.614 50.6141 226.814 50.0141 228.414C49.4141 230.014 47.8141 233.214 46.5141 235.414C45.3141 237.614 43.7141 240.214 43.0141 241.114C42.0141 242.514 42.3141 243.514 44.8141 247.014C46.5141 249.414 50.3141 253.314 53.3141 255.714L58.8141 260.214C63.8141 254.114 67.0141 248.714 69.3141 244.114C71.5141 239.614 73.3141 235.114 73.3141 234.114C73.3141 233.014 71.8141 231.814 68.6141 230.714Z" fill="#2B000A"/>
<path d="M139.914 229.414C138.514 226.114 137.014 223.314 136.614 223.214C136.214 223.114 134.214 224.114 132.314 225.514C130.414 226.814 126.014 229.014 122.614 230.314C119.214 231.614 116.214 233.414 115.914 234.314C115.614 235.214 117.214 239.814 119.614 244.514C121.914 249.214 125.014 254.614 126.614 256.514C128.114 258.414 130.014 259.914 130.814 259.914C131.614 259.914 135.114 257.314 138.614 254.014C142.014 250.814 145.514 247.014 146.314 245.614C147.714 243.114 147.614 242.714 145.114 239.214C143.614 237.114 141.214 232.714 139.914 229.414Z" fill="#2B000A"/>
<path d="M102.614 234.914C101.614 234.914 97.5141 234.714 93.4141 234.614C87.5141 234.414 85.8141 234.614 85.2141 235.914C84.8142 236.714 83.1149 240.813 81.4153 244.912L81.4141 244.914C79.7141 249.014 76.3141 255.414 73.8141 259.114L69.3141 265.914C73.6141 267.314 76.6141 268.314 78.8141 269.114C81.2141 269.814 87.7141 270.414 95.3141 270.414C104.514 270.414 109.214 269.914 113.114 268.614C115.914 267.714 118.514 266.514 118.814 265.914C119.114 265.314 117.614 262.314 115.414 259.114C113.314 256.014 110.714 251.614 109.614 249.414C108.514 247.214 106.814 243.014 105.914 240.114C104.814 236.514 103.814 234.914 102.614 234.914Z" fill="#2B000A"/>
</svg>
