<svg width="350" height="129" viewBox="0 0 350 129" fill="none" xmlns="http://www.w3.org/2000/svg">
<path fill-rule="evenodd" clip-rule="evenodd" d="M193.3 45C221.6 45 233.6 45.4 236.4 46.3C238.6 47 241.2 48.8 242.4 50.5C243.7 52.4 244.5 55 244.5 57.5C244.5 59.7 242.5 66.9 240.1 73.5C237.7 80.1 234.2 87.5 232.5 90C230.7 92.5 227.5 95.6 225.4 97C223.2 98.4 220.2 100.2 218.5 101C216.1 102.2 208.7 102.5 181.3 102.7C158.8 102.9 147.2 103.3 147.5 104C147.8 104.6 149.8 105.9 152 107C155.7 108.9 155.9 109.2 155.1 111.7C154.944 112.116 154.727 112.7 154.425 113.515C153.565 115.836 152.013 120.024 149.2 127.5L124 128L125.9 122.7C126.417 121.252 128.485 115.58 131.357 107.702C134.039 100.344 137.423 91.0619 140.9 81.5C148.1 61.7 154 45.4 154 45.2C154 45.1 171.7 45 193.3 45ZM163.2 66.7C161.4 65.8 159.9 64.8 159.9 64.5C159.9 64.3 173 64 188.9 64C204.9 64 217.9 64.2 217.9 64.3C218 64.4 216.8 67.7 215.4 71.5C214 75.4 212.3 79.8 210.4 84.1H188.2C175.9 84.1 165.9 83.7 165.9 83.3C165.9 82.9 166.8 80 167.9 76.8C169.8 71.3 169.8 71 168.2 69.7C167.2 68.9 165 67.6 163.2 66.7Z" fill="#E9E9E9"/>
<path fill-rule="evenodd" clip-rule="evenodd" d="M308.3 46.0224C333.4 45.9224 339.7 46.1225 342.8 47.3225C344.9 48.2225 347.3 50.1225 348.3 51.8225C349.2 53.5225 350 56.6225 350 58.8225C350 61.0225 348.2 67.8225 346 73.8225C343.8 79.9225 340.2 89.9225 338 96.1225C335.8 102.322 332.9 109.622 331.6 112.322C330.3 115.122 327.3 119.022 324.9 121.122C322.5 123.222 318.9 125.722 317 126.622C313.9 128.122 309.3 128.422 279 128.622C245.9 128.922 244.4 128.822 241.3 126.922C239.5 125.822 237.6 123.722 237 122.322C236.5 121.022 236 118.322 236 116.322C236 114.422 237.8 108.022 239.9 102.122C240.834 99.6175 242.093 96.1572 243.454 92.415C245.298 87.3431 247.331 81.7533 249 77.3225C251.8 69.6225 255 62.0225 256 60.3225C257 58.7225 259.4 55.9225 261.4 54.1225C263.4 52.3225 266.5 50.1224 268.3 49.2224C270.1 48.3224 272.9 47.2225 274.5 46.8225C276.2 46.4225 291.4 46.0224 308.3 46.0224ZM271 68.6225C268.8 67.4225 267 66.0225 267 65.6225C267 65.2225 279.8 64.8225 295.5 64.8225C313.8 64.8225 324 65.2225 324 65.8225C324 66.4225 322.9 69.7225 321.6 73.1225C320.3 76.5225 316.8 85.9225 313.9 93.8225C311 101.822 308 108.922 307.1 109.622C305.9 110.622 299.9 110.922 284.3 110.922C263.7 110.922 263 110.822 263 108.822C263 107.722 265.7 99.5225 269 90.6225C272.3 81.7225 275 73.6225 275 72.6225C275 71.6225 273.3 69.9225 271 68.6225Z" fill="#E9E9E9"/>
<path d="M81.6141 1.91436C76.3141 0.314364 72.2141 -0.0856353 63.3141 0.0143646C57.0141 0.0143646 50.7141 0.414364 49.3141 0.914364C47.9141 1.31436 45.7141 2.01436 44.3141 2.31436C42.9141 2.61436 41.1141 3.31436 40.3141 3.81436C39.0141 4.61436 39.4141 5.61436 42.4141 10.1144C44.5141 13.0144 47.5141 18.5144 49.3141 22.4144C51.0141 26.3144 52.8141 30.0144 53.1141 30.7144C53.6141 31.7144 56.5141 32.1144 63.7141 32.2144C71.6141 32.4144 73.7141 32.1144 74.4141 30.9144C74.8141 30.1144 76.6141 26.3144 78.3141 22.4144C80.0141 18.5144 83.0141 13.3144 84.9141 10.6144C86.8141 8.01436 88.3141 5.51436 88.3141 4.91436C88.3141 4.31436 85.3141 3.01436 81.6141 1.91436Z" fill="#2B000A"/>
<path d="M104.814 13.8144C102.114 11.7144 99.5141 9.91436 99.1141 9.91436C98.8141 9.91436 96.9141 12.0144 95.0141 14.6144C93.0141 17.3144 90.3141 21.9144 88.8141 24.9144C87.3141 27.9144 86.0141 31.4144 85.9141 32.7144C85.8141 34.6144 86.6141 35.3144 90.3141 36.6144C92.8141 37.5144 96.2141 39.0144 97.8141 39.9144C99.4141 40.9144 102.214 42.5144 104.014 43.5144C105.714 44.6144 107.314 45.2144 107.514 44.9144C107.714 44.6144 109.014 41.9144 110.514 38.9144C112.014 35.9144 114.114 32.0144 115.214 30.4144L117.314 27.4144C111.514 19.9144 107.614 16.0144 104.814 13.8144Z" fill="#2B000A"/>
<path d="M32.2141 14.6144C30.6141 12.6144 28.6141 10.9144 27.7141 10.9144C26.8141 10.9144 22.5141 14.5144 18.2141 18.9144L10.3141 26.9144C14.7141 33.5144 17.0141 37.4144 18.3141 39.9144C19.5141 42.4144 20.7141 44.6144 20.9141 44.9144C21.1141 45.2144 23.0141 44.2144 25.0141 42.8144C27.1141 41.4144 30.9141 39.3144 33.6141 38.1144C36.2141 36.9144 39.0141 35.9144 39.8141 35.9144C40.6141 35.9144 41.6141 35.3144 41.9141 34.6144C42.2141 34.0144 40.8141 30.0144 38.8141 25.9144C36.8141 21.8144 33.8141 16.7144 32.2141 14.6144Z" fill="#2B000A"/>
<path d="M6.41412 40.9144L4.51413 38.4144L2.21411 44.4144C0.314108 49.6144 -0.085874 52.2144 0.014126 63.9144C0.014126 74.7144 0.31412 78.5144 1.91412 82.8144C2.91412 85.8144 4.31411 88.4144 4.81411 88.6144C5.31411 88.8144 6.61411 87.2144 7.71411 85.2144C8.71411 83.1144 10.2141 79.1144 10.9141 76.4144C11.7141 73.6144 12.3141 68.0144 12.3141 63.9144C12.3141 59.1144 11.6141 54.1144 10.2141 49.9144C9.11411 46.3144 7.41412 42.3144 6.41412 40.9144Z" fill="#2B000A"/>
<path d="M126.314 46.9144C125.114 43.3144 123.814 40.0144 123.414 39.6144C123.114 39.1144 121.414 41.4144 119.814 44.6144C118.014 48.2144 116.514 53.3144 115.914 57.9144C115.214 63.3144 115.314 67.2144 116.114 71.9144C116.814 75.5144 118.414 80.8144 119.814 83.6144C121.214 86.5144 122.614 88.9144 123.114 88.9144C123.514 88.9144 124.914 85.4144 126.214 81.2144C128.014 75.2144 128.514 71.1144 128.414 63.4144C128.414 56.0144 127.814 51.7144 126.314 46.9144Z" fill="#2B000A"/>
<path d="M70.0141 44.1144C69.3141 43.4144 66.7141 42.8144 63.8141 42.9144C61.1141 42.9144 58.2141 43.3144 57.5141 43.7144C56.5141 44.3144 56.4141 45.7144 57.4141 50.9144C58.0141 54.5144 58.3141 62.8144 58.2141 69.4144L57.8141 81.4144H69.8141C69.4141 62.0144 69.6141 53.9144 70.2141 50.9144C70.8141 47.0144 70.8141 45.0144 70.0141 44.1144Z" fill="#2B000A"/>
<path d="M46.6141 54.4144C45.9141 47.5144 45.5141 46.4144 43.8141 46.2144C42.7141 46.1144 39.6141 47.0144 36.8141 48.3144C34.1141 49.5144 30.1141 52.2144 28.1141 54.2144C26.0141 56.2144 24.0141 59.1144 23.7141 60.6144C23.3141 62.3144 23.7141 64.7144 24.7141 66.6144C25.6141 68.4144 28.2141 71.2144 30.6141 72.7144C32.9141 74.3144 36.7141 76.3144 39.1141 77.2144C41.4141 78.1144 44.0141 78.9144 44.8141 78.9144C46.0141 78.9144 46.4141 77.1144 46.9141 70.6144C47.2141 66.1144 47.1141 58.8144 46.6141 54.4144Z" fill="#2B000A"/>
<path d="M90.8141 48.8144C87.5141 47.3144 84.3141 45.9144 83.6141 45.9144C82.9141 45.9144 82.0141 46.5144 81.6141 47.1144C81.2141 47.8144 80.7141 54.3144 80.5141 61.4144C80.3141 69.2144 80.6141 75.5144 81.2141 77.1144L82.3141 79.9144C89.7141 77.3144 93.8141 75.1144 96.3141 73.4144C98.7141 71.8144 101.614 68.8144 102.614 66.9144C103.814 64.7144 104.314 62.5144 103.914 61.1144C103.614 59.9144 101.814 57.3144 100.114 55.3144C98.3141 53.3144 94.1141 50.4144 90.8141 48.8144Z" fill="#2B000A"/>
<path d="M37.6141 88.7144C34.9141 87.7144 30.2141 85.4144 26.9141 83.5144C21.9141 80.4144 21.0141 80.2144 20.6141 81.7144C20.3141 82.6144 19.6141 84.8144 19.0141 86.4144C18.4141 88.0144 16.8141 91.2144 15.5141 93.4144C14.3141 95.6144 12.7141 98.2144 12.0141 99.1144C11.0141 100.514 11.3141 101.514 13.8141 105.014C15.5141 107.414 19.3141 111.314 22.3141 113.714L27.8141 118.214C32.8141 112.114 36.0141 106.714 38.3141 102.114C40.5141 97.6144 42.3141 93.1144 42.3141 92.1144C42.3141 91.0144 40.8141 89.8144 37.6141 88.7144Z" fill="#2B000A"/>
<path d="M108.914 87.4144C107.514 84.1144 106.014 81.3144 105.614 81.2144C105.214 81.1144 103.214 82.1144 101.314 83.5144C99.4141 84.8144 95.0141 87.0144 91.6141 88.3144C88.2141 89.6144 85.2141 91.4144 84.9141 92.3144C84.6141 93.2144 86.2141 97.8144 88.6141 102.514C90.9141 107.214 94.0141 112.614 95.6141 114.514C97.1141 116.414 99.0141 117.914 99.8141 117.914C100.614 117.914 104.114 115.314 107.614 112.014C111.014 108.814 114.514 105.014 115.314 103.614C116.714 101.114 116.614 100.714 114.114 97.2144C112.614 95.1144 110.214 90.7144 108.914 87.4144Z" fill="#2B000A"/>
<path d="M71.6141 92.9144C70.6141 92.9144 66.5141 92.7144 62.4141 92.6144C56.5141 92.4144 54.8141 92.6144 54.2141 93.9144C53.8142 94.7142 52.1149 98.8125 50.4153 102.912L50.4141 102.914C48.7141 107.014 45.3141 113.414 42.8141 117.114L38.3141 123.914C42.6141 125.314 45.6141 126.314 47.8141 127.114C50.2141 127.814 56.7141 128.414 64.3141 128.414C73.5141 128.414 78.2141 127.914 82.1141 126.614C84.9141 125.714 87.5141 124.514 87.8141 123.914C88.1141 123.314 86.6141 120.314 84.4141 117.114C82.3141 114.014 79.7141 109.614 78.6141 107.414C77.5141 105.214 75.8141 101.014 74.9141 98.1144C73.8141 94.5144 72.8141 92.9144 71.6141 92.9144Z" fill="#2B000A"/>
</svg>
