<svg width="763" height="129" viewBox="0 0 763 129" fill="none" xmlns="http://www.w3.org/2000/svg">
<path d="M288.7 40H276.3L261.7 80.7C253.6 103.2 247 121.8 247 122.2C247 122.7 264.2 122.9 285.1 122.7L323.3 122.5C327.6 110.9 328.9 106.7 328.9 105.7C329 104.1 327.2 104 304 104C290.3 104 279 103.7 279 103.2C279 102.8 283.9 88.9 290 72.2C296.1 55.6 301 41.6 301 41C301 40.4 296.2 40 288.7 40Z" fill="#E9E9E9"/>
<path d="M445.5 41.4C442.6 40.2 436.4 40 410.3 40C386.4 40.1 377.4 40.4 374 41.5C371.5 42.2 367.5 44.6 365 46.7C362.5 48.8 359.5 52.1 358.3 54C357.1 55.9 350.9 71.6 344.6 88.9C338.2 106.3 333 121 333 121.7C333 122.6 336.1 123 345.3 123H357.5C373.8 78.8 378.3 65.8 378 65.6C377.7 65.4 375.3 63.8 372.5 62.1L367.5 59C412.9 59 426 59.3 426 59.7C426 60.1 424 65.8 421.6 72.4L417.2 84.4L384.5 85.4C384.1 92.1 384.6 94.5 386 96.7C387.1 98.5 389.5 100.8 391.3 101.9C393.8 103.5 396.3 103.9 402.3 103.9C409.2 103.9 410 104.1 409.4 105.7C409.1 106.7 407.5 110.9 405.9 115.2L403 122.9H428.5C450.9 60.7 453.1 53.8 452.6 50.9C452.3 49 451.3 46.4 450.5 45.2C449.7 44 447.4 42.3 445.5 41.4Z" fill="#E9E9E9"/>
<path d="M490.1 48.3L488 40C468.6 40 463 40.4 463 40.8C463 41.2 465.1 49.4 467.6 59C470.1 68.7 473 79.9 474.1 84L476.2 91.5C467.5 114.8 465 121.9 465 122.3C465 122.7 470.6 123 477.5 123C486.6 123 490.1 122.7 490.5 121.8C490.7 121.1 493.2 114 496 106L501.1 91.5C539.8 52.8 551 41.2 551 40.8C551 40.4 545.6 40 539.1 40H527.1C504.2 63.3 497.1 70 496.6 69.8C496.1 69.7 495 66.6 494 63C493 59.5 491.3 52.8 490.1 48.3Z" fill="#E9E9E9"/>
<path d="M698 51.6L692.5 40.5C669.5 40 668 40.2 667.2 41.8C666.7 42.7 664.6 48 662.6 53.5C660.5 59 658 65.8 657 68.5C656 71.3 654 76.7 652.7 80.5C651.3 84.4 648.8 91.4 647 96C645.3 100.7 642.6 108.4 640.9 113C639.3 117.7 638 121.9 638 122.3C638 122.7 643.5 122.9 650.1 122.8L662.2 122.5C665.8 113.2 669.9 102.2 673.5 92C677.1 81.9 680.5 72.9 681 72C681.5 71.2 682.1 70.8 682.4 71C682.6 71.3 687.8 81.9 693.9 94.5C700 107.2 705.7 118.7 706.4 120C707.9 122.5 708.1 122.5 720.6 122.5H733.3C735.3 117.1 737.7 110.6 739.9 104.5C742.1 98.5 745.1 90.2 746.5 86C748 81.9 750.1 76.1 751.2 73C752.3 70 753.6 66.7 754 65.5C754.5 64.4 755.8 60.8 757 57.5C758.2 54.2 760.1 49.4 761.1 46.8C762.2 44.2 762.8 41.6 762.5 41C762.2 40.5 757.2 40 750.5 40C742.4 40 738.8 40.4 738.3 41.3C737.9 42 736.3 45.9 734.9 50C733.4 54.2 731.3 60 730.1 63C729 66.1 726.7 72.4 725 77C723.2 81.7 721.6 86.4 721.3 87.5C721 88.7 720.1 90.4 719.4 91.5C718.3 93.4 717.5 92.1 710.8 78.1C706.8 69.6 701 57.7 698 51.6Z" fill="#2B000A"/>
<path fill-rule="evenodd" clip-rule="evenodd" d="M207.3 40C235.6 40 247.6 40.4 250.4 41.3C252.6 42 255.2 43.8 256.4 45.5C257.7 47.4 258.5 50 258.5 52.5C258.5 54.7 256.5 61.9 254.1 68.5C251.7 75.1 248.2 82.5 246.5 85C244.7 87.5 241.5 90.6 239.4 92C237.2 93.4 234.2 95.2 232.5 96C230.1 97.2 222.7 97.5 195.3 97.7C172.8 97.9 161.2 98.3 161.5 99C161.8 99.6 163.8 100.9 166 102C169.7 103.9 169.9 104.2 169.1 106.7C168.944 107.116 168.727 107.7 168.425 108.515C167.565 110.836 166.013 115.024 163.2 122.5L138 123L139.9 117.7C140.417 116.252 142.485 110.58 145.357 102.702C148.039 95.344 151.423 86.0619 154.9 76.5C162.1 56.7 168 40.4 168 40.2C168 40.1 185.7 40 207.3 40ZM177.2 61.7C175.4 60.8 173.9 59.8 173.9 59.5C173.9 59.3 187 59 202.9 59C218.9 59 231.9 59.2 231.9 59.3C232 59.4 230.8 62.7 229.4 66.5C228 70.4 226.3 74.8 224.4 79.1H202.2C189.9 79.1 179.9 78.7 179.9 78.3C179.9 77.9 180.8 75 181.9 71.8C183.8 66.3 183.8 66 182.2 64.7C181.2 63.9 179 62.6 177.2 61.7Z" fill="#E9E9E9"/>
<path fill-rule="evenodd" clip-rule="evenodd" d="M604.3 40.0224C629.4 39.9224 635.7 40.1225 638.8 41.3225C640.9 42.2225 643.3 44.1225 644.3 45.8225C645.2 47.5225 646 50.6225 646 52.8225C646 55.0225 644.2 61.8225 642 67.8225C639.8 73.9225 636.2 83.9225 634 90.1225C631.8 96.3225 628.9 103.622 627.6 106.322C626.3 109.122 623.3 113.022 620.9 115.122C618.5 117.222 614.9 119.722 613 120.622C609.9 122.122 605.3 122.422 575 122.622C541.9 122.922 540.4 122.822 537.3 120.922C535.5 119.822 533.6 117.722 533 116.322C532.5 115.022 532 112.322 532 110.322C532 108.422 533.8 102.022 535.9 96.1225C536.834 93.6175 538.093 90.1572 539.454 86.415C541.298 81.3431 543.331 75.7533 545 71.3225C547.8 63.6225 551 56.0225 552 54.3225C553 52.7225 555.4 49.9225 557.4 48.1225C559.4 46.3225 562.5 44.1224 564.3 43.2224C566.1 42.3224 568.9 41.2225 570.5 40.8225C572.2 40.4225 587.4 40.0224 604.3 40.0224ZM567 62.6225C564.8 61.4225 563 60.0225 563 59.6225C563 59.2225 575.8 58.8225 591.5 58.8225C609.8 58.8225 620 59.2225 620 59.8225C620 60.4225 618.9 63.7225 617.6 67.1225C616.3 70.5225 612.8 79.9225 609.9 87.8225C607 95.8225 604 102.922 603.1 103.622C601.9 104.622 595.9 104.922 580.3 104.922C559.7 104.922 559 104.822 559 102.822C559 101.722 561.7 93.5225 565 84.6225C568.3 75.7225 571 67.6225 571 66.6225C571 65.6225 569.3 63.9225 567 62.6225Z" fill="#2B000A"/>
<path d="M81.6141 1.91436C76.3141 0.314364 72.2141 -0.0856353 63.3141 0.0143646C57.0141 0.0143646 50.7141 0.414364 49.3141 0.914364C47.9141 1.31436 45.7141 2.01436 44.3141 2.31436C42.9141 2.61436 41.1141 3.31436 40.3141 3.81436C39.0141 4.61436 39.4141 5.61436 42.4141 10.1144C44.5141 13.0144 47.5141 18.5144 49.3141 22.4144C51.0141 26.3144 52.8141 30.0144 53.1141 30.7144C53.6141 31.7144 56.5141 32.1144 63.7141 32.2144C71.6141 32.4144 73.7141 32.1144 74.4141 30.9144C74.8141 30.1144 76.6141 26.3144 78.3141 22.4144C80.0141 18.5144 83.0141 13.3144 84.9141 10.6144C86.8141 8.01436 88.3141 5.51436 88.3141 4.91436C88.3141 4.31436 85.3141 3.01436 81.6141 1.91436Z" fill="#E9E9E9"/>
<path d="M104.814 13.8144C102.114 11.7144 99.5141 9.91436 99.1141 9.91436C98.8141 9.91436 96.9141 12.0144 95.0141 14.6144C93.0141 17.3144 90.3141 21.9144 88.8141 24.9144C87.3141 27.9144 86.0141 31.4144 85.9141 32.7144C85.8141 34.6144 86.6141 35.3144 90.3141 36.6144C92.8141 37.5144 96.2141 39.0144 97.8141 39.9144C99.4141 40.9144 102.214 42.5144 104.014 43.5144C105.714 44.6144 107.314 45.2144 107.514 44.9144C107.714 44.6144 109.014 41.9144 110.514 38.9144C112.014 35.9144 114.114 32.0144 115.214 30.4144L117.314 27.4144C111.514 19.9144 107.614 16.0144 104.814 13.8144Z" fill="#E9E9E9"/>
<path d="M32.2141 14.6144C30.6141 12.6144 28.6141 10.9144 27.7141 10.9144C26.8141 10.9144 22.5141 14.5144 18.2141 18.9144L10.3141 26.9144C14.7141 33.5144 17.0141 37.4144 18.3141 39.9144C19.5141 42.4144 20.7141 44.6144 20.9141 44.9144C21.1141 45.2144 23.0141 44.2144 25.0141 42.8144C27.1141 41.4144 30.9141 39.3144 33.6141 38.1144C36.2141 36.9144 39.0141 35.9144 39.8141 35.9144C40.6141 35.9144 41.6141 35.3144 41.9141 34.6144C42.2141 34.0144 40.8141 30.0144 38.8141 25.9144C36.8141 21.8144 33.8141 16.7144 32.2141 14.6144Z" fill="#E9E9E9"/>
<path d="M6.41412 40.9144L4.51413 38.4144L2.21411 44.4144C0.314108 49.6144 -0.085874 52.2144 0.014126 63.9144C0.014126 74.7144 0.31412 78.5144 1.91412 82.8144C2.91412 85.8144 4.31411 88.4144 4.81411 88.6144C5.31411 88.8144 6.61411 87.2144 7.71411 85.2144C8.71411 83.1144 10.2141 79.1144 10.9141 76.4144C11.7141 73.6144 12.3141 68.0144 12.3141 63.9144C12.3141 59.1144 11.6141 54.1144 10.2141 49.9144C9.11411 46.3144 7.41412 42.3144 6.41412 40.9144Z" fill="#E9E9E9"/>
<path d="M126.314 46.9144C125.114 43.3144 123.814 40.0144 123.414 39.6144C123.114 39.1144 121.414 41.4144 119.814 44.6144C118.014 48.2144 116.514 53.3144 115.914 57.9144C115.214 63.3144 115.314 67.2144 116.114 71.9144C116.814 75.5144 118.414 80.8144 119.814 83.6144C121.214 86.5144 122.614 88.9144 123.114 88.9144C123.514 88.9144 124.914 85.4144 126.214 81.2144C128.014 75.2144 128.514 71.1144 128.414 63.4144C128.414 56.0144 127.814 51.7144 126.314 46.9144Z" fill="#E9E9E9"/>
<path d="M70.0141 44.1144C69.3141 43.4144 66.7141 42.8144 63.8141 42.9144C61.1141 42.9144 58.2141 43.3144 57.5141 43.7144C56.5141 44.3144 56.4141 45.7144 57.4141 50.9144C58.0141 54.5144 58.3141 62.8144 58.2141 69.4144L57.8141 81.4144H69.8141C69.4141 62.0144 69.6141 53.9144 70.2141 50.9144C70.8141 47.0144 70.8141 45.0144 70.0141 44.1144Z" fill="#E9E9E9"/>
<path d="M46.6141 54.4144C45.9141 47.5144 45.5141 46.4144 43.8141 46.2144C42.7141 46.1144 39.6141 47.0144 36.8141 48.3144C34.1141 49.5144 30.1141 52.2144 28.1141 54.2144C26.0141 56.2144 24.0141 59.1144 23.7141 60.6144C23.3141 62.3144 23.7141 64.7144 24.7141 66.6144C25.6141 68.4144 28.2141 71.2144 30.6141 72.7144C32.9141 74.3144 36.7141 76.3144 39.1141 77.2144C41.4141 78.1144 44.0141 78.9144 44.8141 78.9144C46.0141 78.9144 46.4141 77.1144 46.9141 70.6144C47.2141 66.1144 47.1141 58.8144 46.6141 54.4144Z" fill="#E9E9E9"/>
<path d="M90.8141 48.8144C87.5141 47.3144 84.3141 45.9144 83.6141 45.9144C82.9141 45.9144 82.0141 46.5144 81.6141 47.1144C81.2141 47.8144 80.7141 54.3144 80.5141 61.4144C80.3141 69.2144 80.6141 75.5144 81.2141 77.1144L82.3141 79.9144C89.7141 77.3144 93.8141 75.1144 96.3141 73.4144C98.7141 71.8144 101.614 68.8144 102.614 66.9144C103.814 64.7144 104.314 62.5144 103.914 61.1144C103.614 59.9144 101.814 57.3144 100.114 55.3144C98.3141 53.3144 94.1141 50.4144 90.8141 48.8144Z" fill="#E9E9E9"/>
<path d="M37.6141 88.7144C34.9141 87.7144 30.2141 85.4144 26.9141 83.5144C21.9141 80.4144 21.0141 80.2144 20.6141 81.7144C20.3141 82.6144 19.6141 84.8144 19.0141 86.4144C18.4141 88.0144 16.8141 91.2144 15.5141 93.4144C14.3141 95.6144 12.7141 98.2144 12.0141 99.1144C11.0141 100.514 11.3141 101.514 13.8141 105.014C15.5141 107.414 19.3141 111.314 22.3141 113.714L27.8141 118.214C32.8141 112.114 36.0141 106.714 38.3141 102.114C40.5141 97.6144 42.3141 93.1144 42.3141 92.1144C42.3141 91.0144 40.8141 89.8144 37.6141 88.7144Z" fill="#E9E9E9"/>
<path d="M108.914 87.4144C107.514 84.1144 106.014 81.3144 105.614 81.2144C105.214 81.1144 103.214 82.1144 101.314 83.5144C99.4141 84.8144 95.0141 87.0144 91.6141 88.3144C88.2141 89.6144 85.2141 91.4144 84.9141 92.3144C84.6141 93.2144 86.2141 97.8144 88.6141 102.514C90.9141 107.214 94.0141 112.614 95.6141 114.514C97.1141 116.414 99.0141 117.914 99.8141 117.914C100.614 117.914 104.114 115.314 107.614 112.014C111.014 108.814 114.514 105.014 115.314 103.614C116.714 101.114 116.614 100.714 114.114 97.2144C112.614 95.1144 110.214 90.7144 108.914 87.4144Z" fill="#E9E9E9"/>
<path d="M71.6141 92.9144C70.6141 92.9144 66.5141 92.7144 62.4141 92.6144C56.5141 92.4144 54.8141 92.6144 54.2141 93.9144C53.8142 94.7142 52.1149 98.8125 50.4153 102.912L50.4141 102.914C48.7141 107.014 45.3141 113.414 42.8141 117.114L38.3141 123.914C42.6141 125.314 45.6141 126.314 47.8141 127.114C50.2141 127.814 56.7141 128.414 64.3141 128.414C73.5141 128.414 78.2141 127.914 82.1141 126.614C84.9141 125.714 87.5141 124.514 87.8141 123.914C88.1141 123.314 86.6141 120.314 84.4141 117.114C82.3141 114.014 79.7141 109.614 78.6141 107.414C77.5141 105.214 75.8141 101.014 74.9141 98.1144C73.8141 94.5144 72.8141 92.9144 71.6141 92.9144Z" fill="#E9E9E9"/>
</svg>
